<svg xmlns="http://www.w3.org/2000/svg" width="24" height="24" viewBox="0 0 24 24" fill="none" stroke="#F8A0A0" stroke-width="2" stroke-linecap="round" stroke-linejoin="round" class="lucide lucide-astroid" style="filter:drop-shadow(-1px -1px 0.5px rgba(255,255,255,0.9)) drop-shadow(1.5px 1.5px 2px rgba(0,0,0,0.25));"><path d="M12.983 21.186a1 1 0 0 1-1.966 0 10 10 0 0 0-8.203-8.203 1 1 0 0 1 0-1.966 10 10 0 0 0 8.203-8.203 1 1 0 0 1 1.966 0 10 10 0 0 0 8.203 8.203 1 1 0 0 1 0 1.966 10 10 0 0 0-8.203 8.203"/></svg>
